#!OML:ASF H:\Terrain\Patient Classification 1\Walking\liu\liu.ASF
:FULLY-SPECIFIED
:DEGREES
279
root 10.557 17.0535 5.74832 4.47067 -4.23765 2.01579
lowerback -5.37545 -1.42208 -5.60015
upperback -0.618283 -1.60958 1.69614
thorax 2.58096 -0.869828 4.78613
lowerneck -23.1797 -4.33168 -11.1279
upperneck 24.0693 -5.76028 12.6034
head 12.5697 -1.96354 5.73793
rclavicle -2.30404e-014 3.57812e-015
rhumerus -44.6876 13.9487 -88.8278
rradius 42.5027
rwrist -21.5512
rhand -29.3185 -24.2165
rfingers 7.12502
rthumb -2.6593 -54.1796
lclavicle -2.30404e-014 3.57812e-015
lhumerus -27.47 -9.74776 86.2405
lradius 26.6025
lwrist 3.26528
lhand -14.2027 -24.5825
lfingers 7.12502
lthumb 11.9336 5.05733
rfemur -23.6839 -2.33992 19.5195
rtibia 59.7685
rfoot -16.4023 -12.511
rtoes -17.645
lfemur -14.1769 5.81239 -26.8225
ltibia 23.3096
lfoot -15.0577 0.692945
ltoes -4.17068
280
root 10.5653 17.0417 5.86492 4.3595 -3.94883 2.19431
lowerback -5.28087 -1.49331 -5.80888
upperback -0.545203 -1.69451 1.62889
thorax 2.61852 -0.91703 4.82817
lowerneck -23.0112 -4.3699 -11.1878
upperneck 23.8973 -5.83413 12.7376
head 12.4867 -1.99012 5.77951
rclavicle -5.96354e-016 -9.54166e-015
rhumerus -44.7496 13.8587 -88.8289
rradius 42.4696
rwrist -21.5622
rhand -29.2606 -24.8896
rfingers 7.12502
rthumb -2.60339 -54.8535
lclavicle -5.96354e-016 -9.54166e-015
lhumerus -26.7608 -10.4374 86.1058
lradius 26.8798
lwrist 3.96098
lhand -13.213 -23.4608
lfingers 7.12502
lthumb 12.8878 6.12126
rfemur -24.4489 -2.18307 19.4218
rtibia 58.8337
rfoot -17.488 -12.2969
rtoes -16.6961
lfemur -13.7674 5.74131 -27.0353
ltibia 23.6849
lfoot -15.7662 0.504184
ltoes -5.08254
281
root 10.5795 17.0349 5.98072 4.32293 -3.69186 2.14874
lowerback -5.19351 -1.58224 -5.74026
upperback -0.494535 -1.82172 1.64607
thorax 2.63679 -0.981726 4.79796
lowerneck -22.6795 -4.30924 -11.154
upperneck 23.5252 -5.7505 12.7182
head 12.2596 -1.9621 5.7591
rclavicle -4.24902e-015 -1.39149e-014
rhumerus -45.1165 13.9968 -88.8862
rradius 42.8271
rwrist -21.7758
rhand -29.1022 -26.0068
rfingers 7.12502
rthumb -2.45045 -55.9725
lclavicle -4.24902e-015 -1.39149e-014
lhumerus -26.2131 -10.8462 85.9767
lradius 27.1027
lwrist 4.34948
lhand -13.312 -22.9539
lfingers 7.12502
lthumb 12.7924 6.63412
rfemur -25.3635 -2.04865 19.5695
rtibia 57.8886
rfoot -17.6718 -12.4414
rtoes -16.5553
lfemur -13.3172 5.79843 -27.0173
ltibia 23.7448
lfoot -16.2977 0.285872
ltoes -6.20757
282
root 10.5922 17.0197 6.09909 4.3398 -3.43772 2.20014
lowerback -5.19232 -1.69435 -5.84208
upperback -0.48205 -1.96743 1.7257
thorax 2.67396 -1.05765 4.92694
lowerneck -22.4955 -4.31107 -11.1844
upperneck 23.4169 -5.68358 12.4931
head 12.1626 -1.96871 5.67911
rclavicle 7.45443e-015 -4.37326e-015
rhumerus -45.2727 13.9971 -88.7307
rradius 42.667
rwrist -21.7848
rhand -29.0682 -25.9551
rfingers 7.12502
rthumb -2.41761 -55.9211
lclavicle 7.45443e-015 -4.37326e-015
lhumerus -25.6826 -10.9203 86.0169
lradius 27.0047
lwrist 4.40312
lhand -13.4687 -22.9136
lfingers 7.12502
lthumb 12.6413 6.68382
rfemur -26.3063 -1.90611 19.5857
rtibia 56.8476
rfoot -18.0829 -12.4219
rtoes -15.3366
lfemur -12.9351 5.51583 -27.1128
ltibia 23.8445
lfoot -16.6807 0.3608
ltoes -5.52958
